<?xml version="1.0" encoding="utf-8"?>
<!-- Generator: Adobe Illustrator 16.0.0, SVG Export Plug-In . SVG Version: 6.00 Build 0)  -->
<!DOCTYPE svg PUBLIC "-//W3C//DTD SVG 1.1//EN" "http://www.w3.org/Graphics/SVG/1.1/DTD/svg11.dtd">
<svg version="1.1" id="Layer_1" xmlns="http://www.w3.org/2000/svg" xmlns:xlink="http://www.w3.org/1999/xlink" x="0px" y="0px"
	 width="612px" height="495.132px" viewBox="0 0 612 495.132" enable-background="new 0 0 612 495.132" xml:space="preserve">
<path fill="#FFC42A" d="M334.566,119.185c0,32.059-17.739,57.892-42.816,77.521c-24.495,19.088-29.114,27.138-29.114,43.356
	c0,13.877,29.243,34.595,42.687,44.673c46.789,35.07,56.307,57.169,56.307,101.109c0,54.773-59.046,109.288-155.084,109.288
	c-84.231,0-155.321-34.271-155.321-89.045c0-55.658,58.96-113.604,143.192-113.604c9.194,0,17.588-0.237,26.308-0.237
	c-11.545-11.223-20.848-20.891-20.848-37.832c0-10.013,3.194-19.639,7.684-28.293c-4.533,0.377-9.237,0.615-14.05,0.615
	c-69.19,0-109.482-48.568-109.482-109.59c0-59.683,61.334-113.896,134.905-113.896h144.963L331.503,37.24h-38.048
	C320.302,52.596,334.566,84.309,334.566,119.185 M542.763,110.25H475.86v66.87h-33.429v-66.87H375.55V76.799h66.882V9.896h33.429
	v66.903h66.902V110.25z M213.517,309.597c-58.226-0.669-107.561,36.818-107.561,80.175c0,44.308,42.062,81.103,100.267,81.103
	c81.88,0,110.389-34.595,110.389-78.836c0-5.353-0.669-10.554-1.855-15.626c-6.432-25.077-31.897-38.781-63.536-60.751
	C239.738,311.928,227.091,309.727,213.517,309.597 M197.094,26.784c-39.041-1.155-65.305,38.124-58.507,89.455
	c6.711,51.3,43.853,87.146,82.959,88.333c39.041,1.155,61.506-31.887,54.773-83.164C269.607,70.076,236.156,27.982,197.094,26.784"
	/>
</svg>
