<?xml version="1.0" encoding="utf-8"?>
<!-- Generator: Adobe Illustrator 16.0.0, SVG Export Plug-In . SVG Version: 6.00 Build 0)  -->
<!DOCTYPE svg PUBLIC "-//W3C//DTD SVG 1.1//EN" "http://www.w3.org/Graphics/SVG/1.1/DTD/svg11.dtd">
<svg version="1.1" id="Layer_1" xmlns="http://www.w3.org/2000/svg" xmlns:xlink="http://www.w3.org/1999/xlink" x="0px" y="0px"
	 width="90.102px" height="90.102px" viewBox="0 0 90.102 90.102" enable-background="new 0 0 90.102 90.102" xml:space="preserve">
<g>
	<defs>
		<rect id="SVGID_1_" y="0" width="90.102" height="90.102"/>
	</defs>
	<clipPath id="SVGID_2_">
		<use xlink:href="#SVGID_1_"  overflow="visible"/>
	</clipPath>
	<path clip-path="url(#SVGID_2_)" d="M45.039,0C20.167,0,0,20.167,0,45.039c0,24.877,20.167,45.063,45.04,45.063
		c24.877,0,45.062-20.186,45.062-45.063C90.102,20.167,69.916,0,45.039,0 M54.425,69.824c-2.327,0.911-4.171,1.603-5.549,2.083
		c-1.377,0.486-2.979,0.729-4.804,0.729c-2.813,0-5.005-0.691-6.554-2.068c-1.564-1.358-2.326-3.107-2.326-5.215
		c0-0.82,0.057-1.654,0.166-2.512c0.115-0.858,0.301-1.807,0.558-2.889l2.908-10.258c0.257-0.986,0.481-1.916,0.648-2.773
		c0.171-0.896,0.262-1.692,0.262-2.421c0-1.302-0.276-2.217-0.82-2.736c-0.538-0.52-1.563-0.763-3.088-0.763
		c-0.744,0-1.526,0.11-2.312,0.334c-0.782,0.243-1.449,0.467-2.007,0.672l0.763-3.146c1.897-0.782,3.722-1.435,5.453-1.993
		c1.735-0.562,3.369-0.839,4.919-0.839c2.788,0,4.933,0.687,6.439,2.031c1.507,1.339,2.273,3.089,2.273,5.248
		c0,0.448-0.057,1.23-0.152,2.345c-0.109,1.14-0.296,2.159-0.576,3.095l-2.885,10.219c-0.242,0.819-0.447,1.768-0.652,2.812
		c-0.187,1.044-0.277,1.846-0.277,2.384c0,1.358,0.315,2.292,0.911,2.774c0.615,0.505,1.658,0.743,3.165,0.743
		c0.705,0,1.492-0.128,2.383-0.372c0.877-0.238,1.525-0.462,1.936-0.648L54.425,69.824z M53.924,28.342
		c-1.358,1.244-2.979,1.878-4.881,1.878c-1.878,0-3.519-0.634-4.876-1.878c-1.339-1.249-2.031-2.774-2.031-4.562
		c0-1.773,0.692-3.298,2.031-4.566c1.358-1.244,2.999-1.878,4.876-1.878c1.901,0,3.522,0.634,4.881,1.878
		c1.339,1.268,2.011,2.793,2.011,4.566C55.935,25.567,55.263,27.093,53.924,28.342"/>
</g>
</svg>
