<?xml version="1.0" encoding="utf-8"?>
<!-- Generator: Adobe Illustrator 16.0.0, SVG Export Plug-In . SVG Version: 6.00 Build 0)  -->
<!DOCTYPE svg PUBLIC "-//W3C//DTD SVG 1.1//EN" "http://www.w3.org/Graphics/SVG/1.1/DTD/svg11.dtd">
<svg version="1.1" id="Layer_1" xmlns="http://www.w3.org/2000/svg" xmlns:xlink="http://www.w3.org/1999/xlink" x="0px" y="0px"
	 width="93.229px" height="93.229px" viewBox="0 0 93.229 93.229" enable-background="new 0 0 93.229 93.229" xml:space="preserve">
<g>
	<defs>
		<rect id="SVGID_1_" y="0" width="93.228" height="93.228"/>
	</defs>
	<clipPath id="SVGID_2_">
		<use xlink:href="#SVGID_1_"  overflow="visible"/>
	</clipPath>
	<path clip-path="url(#SVGID_2_)" fill-rule="evenodd" clip-rule="evenodd" d="M90.947,79.93L70.692,59.676
		c-0.107-0.107-0.232-0.183-0.345-0.281c3.984-6.046,6.311-13.284,6.311-21.065C76.658,17.161,59.498,0,38.329,0
		C17.16,0,0,17.161,0,38.33c0,21.167,17.16,38.329,38.329,38.329c7.782,0,15.018-2.326,21.063-6.311
		c0.101,0.112,0.175,0.237,0.284,0.345L79.93,90.946c3.042,3.043,7.974,3.043,11.018,0C93.989,87.904,93.989,82.973,90.947,79.93
		 M38.329,63.371c-13.83,0-25.042-11.212-25.042-25.042c0-13.831,11.212-25.043,25.042-25.043c13.831,0,25.042,11.212,25.042,25.043
		C63.371,52.159,52.159,63.371,38.329,63.371"/>
</g>
</svg>
