<?xml version="1.0" encoding="utf-8"?>
<!-- Generator: Adobe Illustrator 16.0.0, SVG Export Plug-In . SVG Version: 6.00 Build 0)  -->
<!DOCTYPE svg PUBLIC "-//W3C//DTD SVG 1.1//EN" "http://www.w3.org/Graphics/SVG/1.1/DTD/svg11.dtd">
<svg version="1.1" id="Layer_1" xmlns="http://www.w3.org/2000/svg" xmlns:xlink="http://www.w3.org/1999/xlink" x="0px" y="0px"
	 width="72.312px" height="94.082px" viewBox="0 0 72.312 94.082" enable-background="new 0 0 72.312 94.082" xml:space="preserve">
<g>
	<defs>
		<rect id="SVGID_1_" y="0" width="72.312" height="94.081"/>
	</defs>
	<clipPath id="SVGID_2_">
		<use xlink:href="#SVGID_1_"  overflow="visible"/>
	</clipPath>
	<path clip-path="url(#SVGID_2_)" d="M67.183,37.994h-1.834v-8.58c0-15.869-12.594-29.125-28.334-29.408
		c-0.429-0.008-1.289-0.008-1.718,0C19.556,0.289,6.964,13.545,6.964,29.414v8.58H5.13C2.305,37.994,0,40.909,0,44.51v43.033
		c0,3.596,2.305,6.539,5.13,6.539h62.053c2.824,0,5.129-2.943,5.129-6.539V44.51C72.312,40.909,70.007,37.994,67.183,37.994
		 M41.97,65.982v13.003c0,1.49-1.247,2.749-2.737,2.749H33.08c-1.49,0-2.737-1.259-2.737-2.749V65.982
		c-1.445-1.423-2.287-3.39-2.287-5.564c0-4.124,3.187-7.668,7.241-7.831c0.429-0.019,1.289-0.019,1.718,0
		c4.054,0.163,7.241,3.707,7.241,7.831C44.256,62.592,43.415,64.559,41.97,65.982 M53.266,37.994h-34.22v-8.58
		c0-9.452,7.682-17.269,17.109-17.269s17.11,7.817,17.11,17.269V37.994z"/>
</g>
</svg>
