<?xml version="1.0" encoding="utf-8"?>
<!-- Generator: Adobe Illustrator 16.0.0, SVG Export Plug-In . SVG Version: 6.00 Build 0)  -->
<!DOCTYPE svg PUBLIC "-//W3C//DTD SVG 1.1//EN" "http://www.w3.org/Graphics/SVG/1.1/DTD/svg11.dtd">
<svg version="1.1" id="Layer_1" xmlns="http://www.w3.org/2000/svg" xmlns:xlink="http://www.w3.org/1999/xlink" x="0px" y="0px"
	 width="612px" height="495.132px" viewBox="0 0 612 495.132" enable-background="new 0 0 612 495.132" xml:space="preserve">
<path fill="#FFC42A" d="M547.049,124.004c0.253,5.313,0.355,10.653,0.355,16.043c0,164.04-124.849,353.242-353.24,353.242
	c-70.127,0-135.375-20.541-190.327-55.771c9.759,1.176,19.621,1.684,29.635,1.684c58.196,0,111.667-19.798,154.152-53.084
	c-54.263-0.971-100.146-36.866-115.933-86.249c7.562,1.507,15.328,2.222,23.324,2.222c11.369,0,22.303-1.454,32.7-4.368
	c-56.74-11.367-99.557-61.593-99.557-121.705v-1.546c16.759,9.286,35.894,14.907,56.255,15.508
	C51.075,167.74,29.18,129.688,29.18,86.628c0-22.763,6.131-44.031,16.81-62.425c61.211,75.134,152.721,124.555,255.88,129.729
	c-2.095-9.108-3.218-18.547-3.218-28.307c0-68.542,55.591-124.108,124.185-124.108c35.688,0,67.956,15.073,90.589,39.164
	c28.256-5.544,54.851-15.877,78.866-30.082c-9.299,28.958-28.946,53.342-54.597,68.645c25.114-2.951,49.053-9.606,71.305-19.519
	C592.342,84.636,571.318,106.504,547.049,124.004"/>
</svg>
